PathFileType	4	(X/Y/Z)	/Users/itak/Documents/Research/Walk-IL/dataset/trc/00129_00007.trc
DataRate	CameraRate	NumFrames	NumMarkers	Units	OrigDataRate	OrigDataStartFrame	OrigNumFrames
100.000000	100.000000	4	53	mm	100.000000	540	721
Frame#	Time	RPSI			LPSI			L3			STRN			T10			C7			CLAV			RBAK			LBAK			LSHO			LUPA			LAEL			LAOL			LWTS			LWPS			LFRA			LIFD			LHPS			LHTS			RSHO			RUPA			RAEL			RAOL			RWTS			RWPS			RFRA			RIFD			RHTS			RHPS			RBHD			LFHD			RFHD			LBHD			LHIP			RHIP			RASI			LASI			LKNE			LTHI			LANK			LTIP			LTOE			LMT1			LMT5			LHEE			RKNE			RTHI			RANK			RTIP			RTOE			RMT1			RMT5			RHEE			
		X1	Y1	Z1	X2	Y2	Z2	X3	Y3	Z3	X4	Y4	Z4	X5	Y5	Z5	X6	Y6	Z6	X7	Y7	Z7	X8	Y8	Z8	X9	Y9	Z9	X10	Y10	Z10	X11	Y11	Z11	X12	Y12	Z12	X13	Y13	Z13	X14	Y14	Z14	X15	Y15	Z15	X16	Y16	Z16	X17	Y17	Z17	X18	Y18	Z18	X19	Y19	Z19	X20	Y20	Z20	X21	Y21	Z21	X22	Y22	Z22	X23	Y23	Z23	X24	Y24	Z24	X25	Y25	Z25	X26	Y26	Z26	X27	Y27	Z27	X28	Y28	Z28	X29	Y29	Z29	X30	Y30	Z30	X31	Y31	Z31	X32	Y32	Z32	X33	Y33	Z33	X34	Y34	Z34	X35	Y35	Z35	X36	Y36	Z36	X37	Y37	Z37	X38	Y38	Z38	X39	Y39	Z39	X40	Y40	Z40	X41	Y41	Z41	X42	Y42	Z42	X43	Y43	Z43	X44	Y44	Z44	X45	Y45	Z45	X46	Y46	Z46	X47	Y47	Z47	X48	Y48	Z48	X49	Y49	Z49	X50	Y50	Z50	X51	Y51	Z51	X52	Y52	Z52	X53	Y53	Z53	

541	5.4	773.82470703125	1106.051147460938	310.0013427734375	905.0748901367188	1106.888793945312	343.6520385742188	842.2653198242188	1140.877197265625	320.6916198730469	782.55859375	1348.958374023438	525.2048950195312	851.7186889648438	1292.129760742188	281.5513000488281	848.2850952148438	1585.595336914062	307.203369140625	792.6854248046875	1482.00537109375	484.8002014160156	783.0419921875	1397.021850585938	239.3751678466797	947.850341796875	1569.3369140625	328.1721496582031	990.7310791015625	1560.574340820312	430.6024169921875	1066.809326171875	1430.800537109375	429.9475708007812	1095.398315429688	1214.068481445312	443.9799194335938	1052.327270507812	1200.1064453125	368.1814575195312	1050.915161132812	949.730224609375	526.1857299804688	1093.615600585938	929.68310546875	450.6173706054688	1103.34130859375	1097.690063476562	457.8274230957031	1032.443969726562	758.0145874023438	521.3702392578125	1092.317504882812	853.0789794921875	475.9309692382812	1063.272827148438	859.4786376953125	538.9549560546875	658.5317993164062	1560.613159179688	311.0842895507812	604.4017333984375	1485.02099609375	278.2893371582031	592.4268798828125	1191.362426757812	265.8078308105469	686.3006591796875	1192.048583984375	288.4143371582031	558.6690063476562	955.3848266601562	415.3895568847656	553.5761108398438	934.3936767578125	335.3664855957031	570.19287109375	1118.745361328125	285.8075256347656	563.5726928710938	762.5425415039062	454.2534790039062	542.2982177734375	848.3056030273438	445.9089660644531	536.4912719726562	836.62451171875	373.0114440917969	751.8955078125	1756.61962890625	325.2116394042969	793.4232788085938	1821.583251953125	531.72705078125	677.3466796875	1806.6689453125	478.3365478515625	876.27001953125	1777.29443359375	372.8612976074219	984.0846557617188	1025.118286132812	467.2222290039062	627.3218383789062	1012.455688476562	408.1034851074219	658.1477661132812	1088.970092773438	496.0201416015625	915.8309326171875	1093.889282226562	557.9639892578125	966.2155151367188	525.4615478515625	598.4229125976562	989.46435546875	674.517333984375	552.163330078125	1076.603759765625	220.2048645019531	169.0080413818359	1049.226806640625	388.5175170898438	373.1227111816406	1022.0693359375	30.79084777832031	285.0600280761719	986.68798828125	92.45835876464844	243.5286712646484	1097.8037109375	111.7618103027344	224.6110534667969	1015.594421386719	275.3385009765625	132.4139709472656	709.8316040039062	523.4131469726562	458.9327697753906	646.9925537109375	801.10791015625	445.3292846679688	828.6669311523438	23.14265060424805	458.9363098144531	723.5550537109375	389.1497497558594	450.2466430664062	745.270263671875	42.35199356079102	680.214599609375	813.46826171875	36.04825592041016	652.3694458007812	737.9571533203125	39.0046501159668	557.8645629882812	898.3888549804688	25.28921318054199	437.431640625	
542	5.41	773.1409912109375	1106.050415039062	316.1984252929688	904.2099609375	1107.400146484375	351.3484802246094	841.3408813476562	1141.180053710938	327.7237548828125	778.971435546875	1349.531982421875	531.5775146484375	850.89794921875	1292.54833984375	288.6121826171875	847.0784301757812	1586.130615234375	314.1752624511719	789.7344360351562	1482.612548828125	491.4033508300781	782.298583984375	1397.577392578125	245.720947265625	946.2952270507812	1569.824096679688	336.2281799316406	988.2977905273438	1561.041137695312	439.0423278808594	1064.329467773438	1431.196411132812	438.7188415527344	1092.568237304688	1214.37548828125	451.8260803222656	1049.78173828125	1200.830078125	375.80224609375	1047.837036132812	949.4266967773438	532.1446533203125	1090.651489257812	929.9603271484375	456.5026550292969	1100.41357421875	1097.912963867188	465.0093688964844	1029.590209960938	757.69580078125	525.8846435546875	1089.395263671875	853.1788940429688	481.2434692382812	1060.1123046875	859.0692749023438	544.251220703125	657.2405395507812	1561.242309570312	316.291015625	603.2380981445312	1485.759399414062	283.1100769042969	589.9444580078125	1191.956787109375	271.7560424804688	683.6612548828125	1192.147705078125	294.9453430175781	553.5545654296875	957.9757690429688	423.9435119628906	548.9962768554688	936.0266723632812	344.1487426757812	567.1305541992188	1119.583862304688	292.381591796875	556.4484252929688	765.5882568359375	465.0785217285156	535.9730224609375	851.430908203125	455.5422058105469	530.71533203125	838.9541015625	382.7847595214844	750.2962036132812	1757.335571289062	331.8090515136719	790.1578369140625	1821.65625	538.8064575195312	674.5137329101562	1806.900024414062	484.4540710449219	874.2531127929688	1777.821655273438	380.5809631347656	980.9276123046875	1025.7138671875	476.8257446289062	625.3494262695312	1012.615783691406	411.8966369628906	654.5051879882812	1089.328491210938	500.2543640136719	911.2677001953125	1094.716430664062	566.169189453125	957.0585327148438	528.1947021484375	616.9454956054688	982.8129272460938	676.2942504882812	568.130615234375	1077.087646484375	217.8430023193359	194.3820190429688	1044.739135742188	388.8689270019531	395.0936584472656	1020.462890625	32.09701156616211	315.1895751953125	985.7781982421875	91.96537780761719	270.4364929199219	1097.499267578125	111.7861404418945	254.5989685058594	1016.901000976562	271.3613586425781	154.0320129394531	709.2889404296875	523.362548828125	460.487548828125	645.2883911132812	800.7418212890625	447.98095703125	828.630126953125	23.23427391052246	458.9717407226562	723.4611206054688	389.2003784179688	451.3096313476562	745.3672485351562	42.07500076293945	680.365966796875	813.6492919921875	35.85358810424805	652.4771728515625	737.9779663085938	39.01479721069336	557.8890991210938	898.5303955078125	25.24710464477539	437.4644165039062	
543	5.42	772.488037109375	1106.039184570312	322.3572692871094	903.3282470703125	1108.003051757812	359.1329650878906	840.4478759765625	1141.520874023438	334.6861572265625	775.3419189453125	1350.078002929688	537.9202270507812	850.047607421875	1293.006225585938	295.672607421875	845.9268188476562	1586.707885742188	321.1399841308594	786.7500610351562	1483.209106445312	498.00439453125	781.642333984375	1398.150634765625	252.0047302246094	944.7407836914062	1570.312133789062	344.3875122070312	985.8051147460938	1561.48193359375	447.5671081542969	1061.833862304688	1431.591430664062	447.5838012695312	1089.795043945312	1214.688354492188	459.6861877441406	1047.364990234375	1201.564208984375	383.401611328125	1044.690551757812	949.2255859375	538.2528686523438	1087.675659179688	930.2362060546875	462.60693359375	1097.519897460938	1098.141235351562	472.25244140625	1026.456420898438	757.51123046875	530.7105712890625	1086.354248046875	853.2922973632812	486.8379211425781	1056.798095703125	858.7664184570312	549.791015625	655.9848022460938	1561.857055664062	321.4363403320312	602.15869140625	1486.502807617188	287.7878112792969	587.5928344726562	1192.552368164062	277.4332580566406	681.1193237304688	1192.256958007812	301.2765197753906	548.5013427734375	960.7152709960938	432.2868957519531	544.5360107421875	937.7115478515625	352.7612915039062	564.2046508789062	1120.421752929688	298.6874694824219	549.385986328125	768.9198608398438	475.9704895019531	529.7171020507812	854.7935791015625	465.0994262695312	525.0943603515625	841.3759155273438	392.5012512207031	748.6944580078125	1758.02978515625	338.3681945800781	786.8786010742188	1821.73828125	545.826904296875	671.6781616210938	1807.130859375	490.521240234375	872.2252807617188	1778.361206054688	388.2440795898438	977.756103515625	1026.384155273438	486.4248046875	623.4989624023438	1012.765563964844	415.3641357421875	650.8715209960938	1089.62939453125	504.2933959960938	906.62939453125	1095.530395507812	574.2637939453125	947.5432739257812	531.1615600585938	634.8563232421875	975.8992919921875	678.2225341796875	583.7005004882812	1077.097534179688	214.4633178710938	220.4761810302734	1039.870849609375	388.8970947265625	416.9810180664062	1018.361755371094	32.99845504760742	346.5143432617188	984.439208984375	90.71489715576172	298.4185791015625	1096.63134765625	111.1081008911133	285.4646606445312	1017.792236328125	266.1439514160156	176.3760375976562	708.7662353515625	523.3164672851562	462.1293334960938	643.6448364257812	800.2836303710938	450.54345703125	828.5687255859375	23.36931419372559	459.0140991210938	723.4552001953125	389.2226867675781	452.4828186035156	745.4436645507812	41.80228424072266	680.5197143554688	813.811767578125	35.70724105834961	652.6237182617188	737.9996948242188	39.02004241943359	557.9224853515625	898.6701049804688	25.22751426696777	437.5148010253906	
544	5.43	771.9035034179688	1106.052001953125	328.4578857421875	902.4007568359375	1108.61865234375	367.0599670410156	839.609130859375	1141.882446289062	341.5876159667969	771.667236328125	1350.587280273438	544.230712890625	849.1532592773438	1293.486694335938	302.7566528320312	844.8098754882812	1587.303100585938	328.1164245605469	783.7227172851562	1483.779907226562	504.5849914550781	781.0702514648438	1398.733520507812	258.2331237792969	943.1786499023438	1570.778076171875	352.6442565917969	983.2512817382812	1561.87158203125	456.1687316894531	1059.3125	1431.958251953125	456.5334167480469	1087.066650390625	1214.982421875	467.5966796875	1045.088500976562	1202.276611328125	391.0049438476562	1041.452392578125	949.0945434570312	544.521728515625	1084.703369140625	930.4849243164062	468.9606323242188	1094.651733398438	1098.350952148438	479.5953674316406	1023.051696777344	757.4216918945312	535.8442993164062	1083.207153320312	853.3922729492188	492.7424926757812	1053.325927734375	858.5413208007812	555.5906372070312	654.7630004882812	1562.449096679688	326.5165100097656	601.1607055664062	1487.235473632812	292.3247985839844	585.3743286132812	1193.130859375	282.8599243164062	678.6768188476562	1192.382080078125	307.4312744140625	543.5364379882812	963.5802612304688	440.4173278808594	540.1874389648438	939.4389038085938	361.2038269042969	561.4166259765625	1121.248657226562	304.7453918457031	542.432373046875	772.5098266601562	486.8857421875	523.5673217773438	858.3607177734375	474.5598449707031	519.6384887695312	843.8690795898438	402.1527404785156	747.0929565429688	1758.676025390625	344.8932495117188	783.5840454101562	1821.839599609375	552.790283203125	668.8334350585938	1807.364501953125	496.5281677246094	870.1889038085938	1778.890869140625	395.8551025390625	974.5639038085938	1027.115478515625	496.0471496582031	621.7633666992188	1012.902526855469	418.51220703125	647.24658203125	1089.870849609375	508.1360778808594	901.9039916992188	1096.322021484375	582.2576904296875	937.7086181640625	534.31591796875	652.1276245117188	968.7250366210938	680.2724609375	598.868896484375	1076.576416015625	210.1444549560547	247.2534790039062	1034.642822265625	388.5838317871094	438.7578735351562	1015.638549804688	33.5770263671875	378.8626403808594	982.5657348632812	88.83452606201172	327.3729553222656	1095.098876953125	109.8128204345703	317.0906982421875	1018.234985351562	259.7522583007812	199.4449920654297	708.2567749023438	523.267333984375	463.8973388671875	642.1212158203125	799.7603759765625	453.062255859375	828.488525390625	23.55277061462402	459.067138671875	723.5316162109375	389.2037963867188	453.7987365722656	745.496337890625	41.53882598876953	680.6806640625	813.951171875	35.6055793762207	652.809326171875	738.024658203125	39.0197639465332	557.9666748046875	898.7996826171875	25.23847770690918	437.5895385742188	
